<svg id="图层_1" data-name="图层 1" xmlns="http://www.w3.org/2000/svg" viewBox="0 0 13 15"><title>icon_pdf</title><path d="M0,14V1A1,1,0,0,1,1,0H9.71L13,3.28V14a1,1,0,0,1-1,1H1A1,1,0,0,1,0,14Z" fill="#e23341"/><path d="M9.71,0V2.69a.65.65,0,0,0,.61.59H13Z" fill="#ff6773"/><path id="路径_9" data-name="路径 9" d="M9.66,10a2.63,2.63,0,0,1-1.57-.7,13.21,13.21,0,0,0-2.52.88c-.66,1.27-1.28,1.93-1.8,1.93a.51.51,0,0,1-.32-.1.67.67,0,0,1-.36-.62c0-.21,0-.79,2.06-1.75A17.35,17.35,0,0,0,6.27,6.71C6,6.15,5.46,4.78,5.85,4.08a.64.64,0,0,1,.63-.37A.67.67,0,0,1,7,4a3.64,3.64,0,0,1-.1,2.6A6.9,6.9,0,0,0,8.24,8.46,6.72,6.72,0,0,1,9.58,8.3c1,0,1.14.54,1.14.85C10.72,10,10,10,9.66,10ZM3.72,11.39h.07a1.43,1.43,0,0,0,.7-.65,1.68,1.68,0,0,0-.77.65Zm2.82-7H6.48a.11.11,0,0,0-.08,0,2,2,0,0,0,.12,1.18,2,2,0,0,0,0-1.22ZM6.69,7.8l0,0,0,0c-.19.53-.4,1.07-.64,1.58l0,0v0A12.06,12.06,0,0,1,7.5,9l0,0h.06A6.76,6.76,0,0,1,6.69,7.8ZM9.58,9a2.5,2.5,0,0,0-.55,0,1.54,1.54,0,0,0,.63.19.9.9,0,0,0,.43,0c0-.07-.09-.18-.52-.18Z" fill="#fff"/></svg>